<?xml version="1.0" encoding="UTF-8" standalone="no"?>
<!DOCTYPE svg PUBLIC "-//W3C//DTD SVG 1.1//EN"
 "http://www.w3.org/Graphics/SVG/1.1/DTD/svg11.dtd">
<!-- Generated by graphviz version 2.38.0 (20140413.2041)
 -->
<!-- Title: G Pages: 1 -->
<svg width="1902pt" height="903pt"
 viewBox="0.00 0.00 1901.98 902.99" xmlns="http://www.w3.org/2000/svg" xmlns:xlink="http://www.w3.org/1999/xlink">
<g id="graph0" class="graph" transform="scale(1 1) rotate(0) translate(4 898.986)">
<title>G</title>
<polygon fill="white" stroke="none" points="-4,4 -4,-898.986 1897.98,-898.986 1897.98,4 -4,4"/>
<g id="clust1" class="cluster"><title>cluster_root</title>
<g id="a_clust1"><a xlink:title="eventq_index&#61;0&#10;full_system&#61;false&#10;sim_quantum&#61;0&#10;time_sync_enable&#61;false&#10;time_sync_period&#61;100000000000&#10;time_sync_spin_threshold&#61;100000000">
<path fill="#bab6ae" stroke="#000000" d="M20,-8C20,-8 1863,-8 1863,-8 1869,-8 1875,-14 1875,-20 1875,-20 1875,-874.986 1875,-874.986 1875,-880.986 1869,-886.986 1863,-886.986 1863,-886.986 20,-886.986 20,-886.986 14,-886.986 8,-880.986 8,-874.986 8,-874.986 8,-20 8,-20 8,-14 14,-8 20,-8"/>
<text text-anchor="middle" x="941.5" y="-871.786" font-family="Arial" font-size="14.00" fill="#000000">root </text>
<text text-anchor="middle" x="941.5" y="-855.688" font-family="Arial" font-size="14.00" fill="#000000">: Root</text>
</a>
</g>
</g>
<g id="clust2" class="cluster"><title>cluster_system</title>
<g id="a_clust2"><a xlink:title="boot_osflags&#61;a&#10;cache_line_size&#61;64&#10;clk_domain&#61;system.clk_domain&#10;eventq_index&#61;0&#10;init_param&#61;0&#10;kernel&#61;&#10;kernel_addr_check&#61;true&#10;load_addr_mask&#61;1099511627775&#10;load_offset&#61;0&#10;mem_mode&#61;atomic&#10;mem_ranges&#61;0:2147483647&#10;memories&#61;system.mem_ctrls&#10;mmap_using_noreserve&#61;false&#10;num_work_ids&#61;16&#10;readfile&#61;&#10;symbolfile&#61;&#10;work_begin_ckpt_count&#61;0&#10;work_begin_cpu_id_exit&#61;&#45;1&#10;work_begin_exit_count&#61;0&#10;work_cpus_ckpt_count&#61;0&#10;work_end_ckpt_count&#61;0&#10;work_end_exit_count&#61;0&#10;work_item_id&#61;&#45;1">
<path fill="#e4e7eb" stroke="#000000" d="M28,-16C28,-16 1855,-16 1855,-16 1861,-16 1867,-22 1867,-28 1867,-28 1867,-826.789 1867,-826.789 1867,-832.789 1861,-838.789 1855,-838.789 1855,-838.789 28,-838.789 28,-838.789 22,-838.789 16,-832.789 16,-826.789 16,-826.789 16,-28 16,-28 16,-22 22,-16 28,-16"/>
<text text-anchor="middle" x="941.5" y="-823.589" font-family="Arial" font-size="14.00" fill="#000000">system </text>
<text text-anchor="middle" x="941.5" y="-807.49" font-family="Arial" font-size="14.00" fill="#000000">: System</text>
</a>
</g>
</g>
<g id="clust3" class="cluster"><title>cluster_system_membus</title>
<g id="a_clust3"><a xlink:title="clk_domain&#61;system.clk_domain&#10;eventq_index&#61;0&#10;forward_latency&#61;4&#10;frontend_latency&#61;3&#10;response_latency&#61;2&#10;snoop_filter&#61;Null&#10;snoop_response_latency&#61;4&#10;system&#61;system&#10;use_default_range&#61;false&#10;width&#61;16">
<path fill="#6f798c" stroke="#000000" d="M1041,-614.592C1041,-614.592 1163,-614.592 1163,-614.592 1169,-614.592 1175,-620.592 1175,-626.592 1175,-626.592 1175,-695.789 1175,-695.789 1175,-701.789 1169,-707.789 1163,-707.789 1163,-707.789 1041,-707.789 1041,-707.789 1035,-707.789 1029,-701.789 1029,-695.789 1029,-695.789 1029,-626.592 1029,-626.592 1029,-620.592 1035,-614.592 1041,-614.592"/>
<text text-anchor="middle" x="1102" y="-692.589" font-family="Arial" font-size="14.00" fill="#000000">membus </text>
<text text-anchor="middle" x="1102" y="-676.49" font-family="Arial" font-size="14.00" fill="#000000">: SystemXBar</text>
</a>
</g>
</g>
<g id="clust108" class="cluster"><title>cluster_system_tol2bus</title>
<g id="a_clust108"><a xlink:title="clk_domain&#61;system.cpu_clk_domain&#10;eventq_index&#61;0&#10;forward_latency&#61;0&#10;frontend_latency&#61;1&#10;response_latency&#61;1&#10;snoop_filter&#61;Null&#10;snoop_response_latency&#61;1&#10;system&#61;system&#10;use_default_range&#61;false&#10;width&#61;32">
<path fill="#6f798c" stroke="#000000" d="M1133,-155C1133,-155 1255,-155 1255,-155 1261,-155 1267,-161 1267,-167 1267,-167 1267,-236.197 1267,-236.197 1267,-242.197 1261,-248.197 1255,-248.197 1255,-248.197 1133,-248.197 1133,-248.197 1127,-248.197 1121,-242.197 1121,-236.197 1121,-236.197 1121,-167 1121,-167 1121,-161 1127,-155 1133,-155"/>
<text text-anchor="middle" x="1194" y="-232.997" font-family="Arial" font-size="14.00" fill="#000000">tol2bus </text>
<text text-anchor="middle" x="1194" y="-216.899" font-family="Arial" font-size="14.00" fill="#000000">: L2XBar</text>
</a>
</g>
</g>
<g id="clust111" class="cluster"><title>cluster_system_l2</title>
<g id="a_clust111"><a xlink:title="addr_ranges&#61;0:18446744073709551615&#10;assoc&#61;8&#10;clk_domain&#61;system.cpu_clk_domain&#10;demand_mshr_reserve&#61;1&#10;eventq_index&#61;0&#10;forward_snoops&#61;true&#10;hit_latency&#61;20&#10;is_top_level&#61;false&#10;max_miss_count&#61;0&#10;mshrs&#61;20&#10;prefetch_on_access&#61;false&#10;prefetcher&#61;Null&#10;response_latency&#61;20&#10;sequential_access&#61;false&#10;size&#61;2097152&#10;system&#61;system&#10;tags&#61;system.l2.tags&#10;tgts_per_mshr&#61;12&#10;two_queue&#61;false&#10;write_buffers&#61;8">
<path fill="#bab6ae" stroke="#000000" d="M1441,-24C1441,-24 1603,-24 1603,-24 1609,-24 1615,-30 1615,-36 1615,-36 1615,-105.197 1615,-105.197 1615,-111.197 1609,-117.197 1603,-117.197 1603,-117.197 1441,-117.197 1441,-117.197 1435,-117.197 1429,-111.197 1429,-105.197 1429,-105.197 1429,-36 1429,-36 1429,-30 1435,-24 1441,-24"/>
<text text-anchor="middle" x="1522" y="-101.997" font-family="Arial" font-size="14.00" fill="#000000">l2 </text>
<text text-anchor="middle" x="1522" y="-85.8986" font-family="Arial" font-size="14.00" fill="#000000">: L2Cache</text>
</a>
</g>
</g>
<g id="clust114" class="cluster"><title>cluster_system_mem_ctrls</title>
<g id="a_clust114"><a xlink:title="IDD0&#61;0.075000&#10;IDD02&#61;0.000000&#10;IDD2N&#61;0.050000&#10;IDD2N2&#61;0.000000&#10;IDD2P0&#61;0.000000&#10;IDD2P02&#61;0.000000&#10;IDD2P1&#61;0.000000&#10;IDD2P12&#61;0.000000&#10;IDD3N&#61;0.057000&#10;IDD3N2&#61;0.000000&#10;IDD3P0&#61;0.000000&#10;IDD3P02&#61;0.000000&#10;IDD3P1&#61;0.000000&#10;IDD3P12&#61;0.000000&#10;IDD4R&#61;0.187000&#10;IDD4R2&#61;0.000000&#10;IDD4W&#61;0.165000&#10;IDD4W2&#61;0.000000&#10;IDD5&#61;0.220000&#10;IDD52&#61;0.000000&#10;IDD6&#61;0.000000&#10;IDD62&#61;0.000000&#10;VDD&#61;1.500000&#10;VDD2&#61;0.000000&#10;activation_limit&#61;4&#10;addr_mapping&#61;RoRaBaCoCh&#10;bank_groups_per_rank&#61;0&#10;banks_per_rank&#61;8&#10;burst_length&#61;8&#10;channels&#61;1&#10;clk_domain&#61;system.clk_domain&#10;conf_table_reported&#61;true&#10;device_bus_width&#61;8&#10;device_rowbuffer_size&#61;1024&#10;device_size&#61;536870912&#10;devices_per_rank&#61;8&#10;dll&#61;true&#10;eventq_index&#61;0&#10;in_addr_map&#61;true&#10;max_accesses_per_row&#61;16&#10;mem_sched_policy&#61;frfcfs&#10;min_writes_per_switch&#61;16&#10;null&#61;false&#10;page_policy&#61;open_adaptive&#10;range&#61;0:2147483647&#10;ranks_per_channel&#61;2&#10;read_buffer_size&#61;32&#10;static_backend_latency&#61;10000&#10;static_frontend_latency&#61;10000&#10;tBURST&#61;5000&#10;tCCD_L&#61;0&#10;tCK&#61;1250&#10;tCL&#61;13750&#10;tCS&#61;2500&#10;tRAS&#61;35000&#10;tRCD&#61;13750&#10;tREFI&#61;7800000&#10;tRFC&#61;260000&#10;tRP&#61;13750&#10;tRRD&#61;6000&#10;tRRD_L&#61;0&#10;tRTP&#61;7500&#10;tRTW&#61;2500&#10;tWR&#61;15000&#10;tWTR&#61;7500&#10;tXAW&#61;30000&#10;tXP&#61;0&#10;tXPDLL&#61;0&#10;tXS&#61;0&#10;tXSDLL&#61;0&#10;write_buffer_size&#61;64&#10;write_high_thresh_perc&#61;85&#10;write_low_thresh_perc&#61;50">
<path fill="#5e5958" stroke="#000000" d="M36,-417C36,-417 143,-417 143,-417 149,-417 155,-423 155,-429 155,-429 155,-498.197 155,-498.197 155,-504.197 149,-510.197 143,-510.197 143,-510.197 36,-510.197 36,-510.197 30,-510.197 24,-504.197 24,-498.197 24,-498.197 24,-429 24,-429 24,-423 30,-417 36,-417"/>
<text text-anchor="middle" x="89.5" y="-494.997" font-family="Arial" font-size="14.00" fill="#000000">mem_ctrls </text>
<text text-anchor="middle" x="89.5" y="-478.899" font-family="Arial" font-size="14.00" fill="#000000">: DDR3_1600_x64</text>
</a>
</g>
</g>
<g id="clust117" class="cluster"><title>cluster_system_cpu0</title>
<g id="a_clust117"><a xlink:title="branchPred&#61;Null&#10;checker&#61;Null&#10;clk_domain&#61;system.cpu_clk_domain&#10;cpu_id&#61;0&#10;do_checkpoint_insts&#61;true&#10;do_quiesce&#61;true&#10;do_statistics_insts&#61;true&#10;dtb&#61;system.cpu0.dtb&#10;eventq_index&#61;0&#10;fastmem&#61;false&#10;function_trace&#61;false&#10;function_trace_start&#61;0&#10;interrupts&#61;system.cpu0.interrupts&#10;isa&#61;system.cpu0.isa&#10;itb&#61;system.cpu0.itb&#10;max_insts_all_threads&#61;0&#10;max_insts_any_thread&#61;1000000&#10;max_loads_all_threads&#61;0&#10;max_loads_any_thread&#61;0&#10;numThreads&#61;1&#10;profile&#61;0&#10;progress_interval&#61;0&#10;simpoint_start_insts&#61;&#10;simulate_data_stalls&#61;false&#10;simulate_inst_stalls&#61;false&#10;socket_id&#61;0&#10;switched_out&#61;false&#10;system&#61;system&#10;tracer&#61;system.cpu0.tracer&#10;width&#61;1&#10;workload&#61;system.cpu0.workload">
<path fill="#bbc6d9" stroke="#000000" d="M175,-278C175,-278 990,-278 990,-278 996,-278 1002,-284 1002,-290 1002,-290 1002,-594.592 1002,-594.592 1002,-600.592 996,-606.592 990,-606.592 990,-606.592 175,-606.592 175,-606.592 169,-606.592 163,-600.592 163,-594.592 163,-594.592 163,-290 163,-290 163,-284 169,-278 175,-278"/>
<text text-anchor="middle" x="582.5" y="-591.392" font-family="Arial" font-size="14.00" fill="#000000">cpu0 </text>
<text text-anchor="middle" x="582.5" y="-575.293" font-family="Arial" font-size="14.00" fill="#000000">: AtomicSimpleCPU</text>
</a>
</g>
</g>
<g id="clust118" class="cluster"><title>cluster_system_cpu0_icache</title>
<g id="a_clust118"><a xlink:title="addr_ranges&#61;0:18446744073709551615&#10;assoc&#61;2&#10;clk_domain&#61;system.cpu_clk_domain&#10;demand_mshr_reserve&#61;1&#10;eventq_index&#61;0&#10;forward_snoops&#61;true&#10;hit_latency&#61;2&#10;is_top_level&#61;true&#10;max_miss_count&#61;0&#10;mshrs&#61;4&#10;prefetch_on_access&#61;false&#10;prefetcher&#61;Null&#10;response_latency&#61;2&#10;sequential_access&#61;false&#10;size&#61;32768&#10;system&#61;system&#10;tags&#61;system.cpu0.icache.tags&#10;tgts_per_mshr&#61;20&#10;two_queue&#61;false&#10;write_buffers&#61;8">
<path fill="#bab6ae" stroke="#000000" d="M393,-286C393,-286 555,-286 555,-286 561,-286 567,-292 567,-298 567,-298 567,-367.197 567,-367.197 567,-373.197 561,-379.197 555,-379.197 555,-379.197 393,-379.197 393,-379.197 387,-379.197 381,-373.197 381,-367.197 381,-367.197 381,-298 381,-298 381,-292 387,-286 393,-286"/>
<text text-anchor="middle" x="474" y="-363.997" font-family="Arial" font-size="14.00" fill="#000000">icache </text>
<text text-anchor="middle" x="474" y="-347.899" font-family="Arial" font-size="14.00" fill="#000000">: L1Cache</text>
</a>
</g>
</g>
<g id="clust121" class="cluster"><title>cluster_system_cpu0_dtb</title>
<g id="a_clust121"><a xlink:title="eventq_index&#61;0&#10;size&#61;64&#10;walker&#61;system.cpu0.dtb.walker">
<path fill="#bab6ae" stroke="#000000" d="M836,-409C836,-409 982,-409 982,-409 988,-409 994,-415 994,-421 994,-421 994,-546.395 994,-546.395 994,-552.395 988,-558.395 982,-558.395 982,-558.395 836,-558.395 836,-558.395 830,-558.395 824,-552.395 824,-546.395 824,-546.395 824,-421 824,-421 824,-415 830,-409 836,-409"/>
<text text-anchor="middle" x="909" y="-543.195" font-family="Arial" font-size="14.00" fill="#000000">dtb </text>
<text text-anchor="middle" x="909" y="-527.096" font-family="Arial" font-size="14.00" fill="#000000">: X86TLB</text>
</a>
</g>
</g>
<g id="clust122" class="cluster"><title>cluster_system_cpu0_dtb_walker</title>
<g id="a_clust122"><a xlink:title="clk_domain&#61;system.cpu_clk_domain&#10;eventq_index&#61;0&#10;num_squash_per_cycle&#61;4&#10;system&#61;system">
<path fill="#9f9c95" stroke="#000000" d="M844,-417C844,-417 974,-417 974,-417 980,-417 986,-423 986,-429 986,-429 986,-498.197 986,-498.197 986,-504.197 980,-510.197 974,-510.197 974,-510.197 844,-510.197 844,-510.197 838,-510.197 832,-504.197 832,-498.197 832,-498.197 832,-429 832,-429 832,-423 838,-417 844,-417"/>
<text text-anchor="middle" x="909" y="-494.997" font-family="Arial" font-size="14.00" fill="#000000">walker </text>
<text text-anchor="middle" x="909" y="-478.899" font-family="Arial" font-size="14.00" fill="#000000">: X86PagetableWalker</text>
</a>
</g>
</g>
<g id="clust123" class="cluster"><title>cluster_system_cpu0_interrupts</title>
<g id="a_clust123"><a xlink:title="clk_domain&#61;system.cpu0.apic_clk_domain&#10;eventq_index&#61;0&#10;int_latency&#61;1000&#10;pio_addr&#61;2305843009213693952&#10;pio_latency&#61;100000&#10;system&#61;system">
<path fill="#c7a793" stroke="#000000" d="M569,-417C569,-417 804,-417 804,-417 810,-417 816,-423 816,-429 816,-429 816,-498.197 816,-498.197 816,-504.197 810,-510.197 804,-510.197 804,-510.197 569,-510.197 569,-510.197 563,-510.197 557,-504.197 557,-498.197 557,-498.197 557,-429 557,-429 557,-423 563,-417 569,-417"/>
<text text-anchor="middle" x="686.5" y="-494.997" font-family="Arial" font-size="14.00" fill="#000000">interrupts </text>
<text text-anchor="middle" x="686.5" y="-478.899" font-family="Arial" font-size="14.00" fill="#000000">: X86LocalApic</text>
</a>
</g>
</g>
<g id="clust124" class="cluster"><title>cluster_system_cpu0_itb_walker_cache</title>
<g id="a_clust124"><a xlink:title="addr_ranges&#61;0:18446744073709551615&#10;assoc&#61;2&#10;clk_domain&#61;system.cpu_clk_domain&#10;demand_mshr_reserve&#61;1&#10;eventq_index&#61;0&#10;forward_snoops&#61;true&#10;hit_latency&#61;2&#10;is_top_level&#61;true&#10;max_miss_count&#61;0&#10;mshrs&#61;10&#10;prefetch_on_access&#61;false&#10;prefetcher&#61;Null&#10;response_latency&#61;2&#10;sequential_access&#61;false&#10;size&#61;1024&#10;system&#61;system&#10;tags&#61;system.cpu0.itb_walker_cache.tags&#10;tgts_per_mshr&#61;12&#10;two_queue&#61;false&#10;write_buffers&#61;8">
<path fill="#bab6ae" stroke="#000000" d="M613,-286C613,-286 775,-286 775,-286 781,-286 787,-292 787,-298 787,-298 787,-367.197 787,-367.197 787,-373.197 781,-379.197 775,-379.197 775,-379.197 613,-379.197 613,-379.197 607,-379.197 601,-373.197 601,-367.197 601,-367.197 601,-298 601,-298 601,-292 607,-286 613,-286"/>
<text text-anchor="middle" x="694" y="-363.997" font-family="Arial" font-size="14.00" fill="#000000">itb_walker_cache </text>
<text text-anchor="middle" x="694" y="-347.899" font-family="Arial" font-size="14.00" fill="#000000">: PageTableWalkerCache</text>
</a>
</g>
</g>
<g id="clust126" class="cluster"><title>cluster_system_cpu0_itb</title>
<g id="a_clust126"><a xlink:title="eventq_index&#61;0&#10;size&#61;64&#10;walker&#61;system.cpu0.itb.walker">
<path fill="#bab6ae" stroke="#000000" d="M391,-409C391,-409 537,-409 537,-409 543,-409 549,-415 549,-421 549,-421 549,-546.395 549,-546.395 549,-552.395 543,-558.395 537,-558.395 537,-558.395 391,-558.395 391,-558.395 385,-558.395 379,-552.395 379,-546.395 379,-546.395 379,-421 379,-421 379,-415 385,-409 391,-409"/>
<text text-anchor="middle" x="464" y="-543.195" font-family="Arial" font-size="14.00" fill="#000000">itb </text>
<text text-anchor="middle" x="464" y="-527.096" font-family="Arial" font-size="14.00" fill="#000000">: X86TLB</text>
</a>
</g>
</g>
<g id="clust127" class="cluster"><title>cluster_system_cpu0_itb_walker</title>
<g id="a_clust127"><a xlink:title="clk_domain&#61;system.cpu_clk_domain&#10;eventq_index&#61;0&#10;num_squash_per_cycle&#61;4&#10;system&#61;system">
<path fill="#9f9c95" stroke="#000000" d="M399,-417C399,-417 529,-417 529,-417 535,-417 541,-423 541,-429 541,-429 541,-498.197 541,-498.197 541,-504.197 535,-510.197 529,-510.197 529,-510.197 399,-510.197 399,-510.197 393,-510.197 387,-504.197 387,-498.197 387,-498.197 387,-429 387,-429 387,-423 393,-417 399,-417"/>
<text text-anchor="middle" x="464" y="-494.997" font-family="Arial" font-size="14.00" fill="#000000">walker </text>
<text text-anchor="middle" x="464" y="-478.899" font-family="Arial" font-size="14.00" fill="#000000">: X86PagetableWalker</text>
</a>
</g>
</g>
<g id="clust128" class="cluster"><title>cluster_system_cpu0_dtb_walker_cache</title>
<g id="a_clust128"><a xlink:title="addr_ranges&#61;0:18446744073709551615&#10;assoc&#61;2&#10;clk_domain&#61;system.cpu_clk_domain&#10;demand_mshr_reserve&#61;1&#10;eventq_index&#61;0&#10;forward_snoops&#61;true&#10;hit_latency&#61;2&#10;is_top_level&#61;true&#10;max_miss_count&#61;0&#10;mshrs&#61;10&#10;prefetch_on_access&#61;false&#10;prefetcher&#61;Null&#10;response_latency&#61;2&#10;sequential_access&#61;false&#10;size&#61;1024&#10;system&#61;system&#10;tags&#61;system.cpu0.dtb_walker_cache.tags&#10;tgts_per_mshr&#61;12&#10;two_queue&#61;false&#10;write_buffers&#61;8">
<path fill="#bab6ae" stroke="#000000" d="M820,-286C820,-286 982,-286 982,-286 988,-286 994,-292 994,-298 994,-298 994,-367.197 994,-367.197 994,-373.197 988,-379.197 982,-379.197 982,-379.197 820,-379.197 820,-379.197 814,-379.197 808,-373.197 808,-367.197 808,-367.197 808,-298 808,-298 808,-292 814,-286 820,-286"/>
<text text-anchor="middle" x="901" y="-363.997" font-family="Arial" font-size="14.00" fill="#000000">dtb_walker_cache </text>
<text text-anchor="middle" x="901" y="-347.899" font-family="Arial" font-size="14.00" fill="#000000">: PageTableWalkerCache</text>
</a>
</g>
</g>
<g id="clust131" class="cluster"><title>cluster_system_cpu0_dcache</title>
<g id="a_clust131"><a xlink:title="addr_ranges&#61;0:18446744073709551615&#10;assoc&#61;2&#10;clk_domain&#61;system.cpu_clk_domain&#10;demand_mshr_reserve&#61;1&#10;eventq_index&#61;0&#10;forward_snoops&#61;true&#10;hit_latency&#61;2&#10;is_top_level&#61;true&#10;max_miss_count&#61;0&#10;mshrs&#61;4&#10;prefetch_on_access&#61;false&#10;prefetcher&#61;Null&#10;response_latency&#61;2&#10;sequential_access&#61;false&#10;size&#61;65536&#10;system&#61;system&#10;tags&#61;system.cpu0.dcache.tags&#10;tgts_per_mshr&#61;20&#10;two_queue&#61;false&#10;write_buffers&#61;8">
<path fill="#bab6ae" stroke="#000000" d="M192,-286C192,-286 354,-286 354,-286 360,-286 366,-292 366,-298 366,-298 366,-367.197 366,-367.197 366,-373.197 360,-379.197 354,-379.197 354,-379.197 192,-379.197 192,-379.197 186,-379.197 180,-373.197 180,-367.197 180,-367.197 180,-298 180,-298 180,-292 186,-286 192,-286"/>
<text text-anchor="middle" x="273" y="-363.997" font-family="Arial" font-size="14.00" fill="#000000">dcache </text>
<text text-anchor="middle" x="273" y="-347.899" font-family="Arial" font-size="14.00" fill="#000000">: L1Cache</text>
</a>
</g>
</g>
<g id="clust135" class="cluster"><title>cluster_system_cpu1</title>
<g id="a_clust135"><a xlink:title="branchPred&#61;Null&#10;checker&#61;Null&#10;clk_domain&#61;system.cpu_clk_domain&#10;cpu_id&#61;1&#10;do_checkpoint_insts&#61;true&#10;do_quiesce&#61;true&#10;do_statistics_insts&#61;true&#10;dtb&#61;system.cpu1.dtb&#10;eventq_index&#61;0&#10;fastmem&#61;false&#10;function_trace&#61;false&#10;function_trace_start&#61;0&#10;interrupts&#61;system.cpu1.interrupts&#10;isa&#61;system.cpu1.isa&#10;itb&#61;system.cpu1.itb&#10;max_insts_all_threads&#61;0&#10;max_insts_any_thread&#61;1000000&#10;max_loads_all_threads&#61;0&#10;max_loads_any_thread&#61;0&#10;numThreads&#61;1&#10;profile&#61;0&#10;progress_interval&#61;0&#10;simpoint_start_insts&#61;&#10;simulate_data_stalls&#61;false&#10;simulate_inst_stalls&#61;false&#10;socket_id&#61;0&#10;switched_out&#61;false&#10;system&#61;system&#10;tracer&#61;system.cpu1.tracer&#10;width&#61;1&#10;workload&#61;system.cpu1.workload">
<path fill="#bbc6d9" stroke="#000000" d="M1022,-278C1022,-278 1837,-278 1837,-278 1843,-278 1849,-284 1849,-290 1849,-290 1849,-594.592 1849,-594.592 1849,-600.592 1843,-606.592 1837,-606.592 1837,-606.592 1022,-606.592 1022,-606.592 1016,-606.592 1010,-600.592 1010,-594.592 1010,-594.592 1010,-290 1010,-290 1010,-284 1016,-278 1022,-278"/>
<text text-anchor="middle" x="1429.5" y="-591.392" font-family="Arial" font-size="14.00" fill="#000000">cpu1 </text>
<text text-anchor="middle" x="1429.5" y="-575.293" font-family="Arial" font-size="14.00" fill="#000000">: AtomicSimpleCPU</text>
</a>
</g>
</g>
<g id="clust136" class="cluster"><title>cluster_system_cpu1_icache</title>
<g id="a_clust136"><a xlink:title="addr_ranges&#61;0:18446744073709551615&#10;assoc&#61;2&#10;clk_domain&#61;system.cpu_clk_domain&#10;demand_mshr_reserve&#61;1&#10;eventq_index&#61;0&#10;forward_snoops&#61;true&#10;hit_latency&#61;2&#10;is_top_level&#61;true&#10;max_miss_count&#61;0&#10;mshrs&#61;4&#10;prefetch_on_access&#61;false&#10;prefetcher&#61;Null&#10;response_latency&#61;2&#10;sequential_access&#61;false&#10;size&#61;32768&#10;system&#61;system&#10;tags&#61;system.cpu1.icache.tags&#10;tgts_per_mshr&#61;20&#10;two_queue&#61;false&#10;write_buffers&#61;8">
<path fill="#bab6ae" stroke="#000000" d="M1224,-286C1224,-286 1386,-286 1386,-286 1392,-286 1398,-292 1398,-298 1398,-298 1398,-367.197 1398,-367.197 1398,-373.197 1392,-379.197 1386,-379.197 1386,-379.197 1224,-379.197 1224,-379.197 1218,-379.197 1212,-373.197 1212,-367.197 1212,-367.197 1212,-298 1212,-298 1212,-292 1218,-286 1224,-286"/>
<text text-anchor="middle" x="1305" y="-363.997" font-family="Arial" font-size="14.00" fill="#000000">icache </text>
<text text-anchor="middle" x="1305" y="-347.899" font-family="Arial" font-size="14.00" fill="#000000">: L1Cache</text>
</a>
</g>
</g>
<g id="clust139" class="cluster"><title>cluster_system_cpu1_dtb</title>
<g id="a_clust139"><a xlink:title="eventq_index&#61;0&#10;size&#61;64&#10;walker&#61;system.cpu1.dtb.walker">
<path fill="#bab6ae" stroke="#000000" d="M1683,-409C1683,-409 1829,-409 1829,-409 1835,-409 1841,-415 1841,-421 1841,-421 1841,-546.395 1841,-546.395 1841,-552.395 1835,-558.395 1829,-558.395 1829,-558.395 1683,-558.395 1683,-558.395 1677,-558.395 1671,-552.395 1671,-546.395 1671,-546.395 1671,-421 1671,-421 1671,-415 1677,-409 1683,-409"/>
<text text-anchor="middle" x="1756" y="-543.195" font-family="Arial" font-size="14.00" fill="#000000">dtb </text>
<text text-anchor="middle" x="1756" y="-527.096" font-family="Arial" font-size="14.00" fill="#000000">: X86TLB</text>
</a>
</g>
</g>
<g id="clust140" class="cluster"><title>cluster_system_cpu1_dtb_walker</title>
<g id="a_clust140"><a xlink:title="clk_domain&#61;system.cpu_clk_domain&#10;eventq_index&#61;0&#10;num_squash_per_cycle&#61;4&#10;system&#61;system">
<path fill="#9f9c95" stroke="#000000" d="M1691,-417C1691,-417 1821,-417 1821,-417 1827,-417 1833,-423 1833,-429 1833,-429 1833,-498.197 1833,-498.197 1833,-504.197 1827,-510.197 1821,-510.197 1821,-510.197 1691,-510.197 1691,-510.197 1685,-510.197 1679,-504.197 1679,-498.197 1679,-498.197 1679,-429 1679,-429 1679,-423 1685,-417 1691,-417"/>
<text text-anchor="middle" x="1756" y="-494.997" font-family="Arial" font-size="14.00" fill="#000000">walker </text>
<text text-anchor="middle" x="1756" y="-478.899" font-family="Arial" font-size="14.00" fill="#000000">: X86PagetableWalker</text>
</a>
</g>
</g>
<g id="clust141" class="cluster"><title>cluster_system_cpu1_interrupts</title>
<g id="a_clust141"><a xlink:title="clk_domain&#61;system.cpu1.apic_clk_domain&#10;eventq_index&#61;0&#10;int_latency&#61;1000&#10;pio_addr&#61;2305843009213693952&#10;pio_latency&#61;100000&#10;system&#61;system">
<path fill="#c7a793" stroke="#000000" d="M1416,-417C1416,-417 1651,-417 1651,-417 1657,-417 1663,-423 1663,-429 1663,-429 1663,-498.197 1663,-498.197 1663,-504.197 1657,-510.197 1651,-510.197 1651,-510.197 1416,-510.197 1416,-510.197 1410,-510.197 1404,-504.197 1404,-498.197 1404,-498.197 1404,-429 1404,-429 1404,-423 1410,-417 1416,-417"/>
<text text-anchor="middle" x="1533.5" y="-494.997" font-family="Arial" font-size="14.00" fill="#000000">interrupts </text>
<text text-anchor="middle" x="1533.5" y="-478.899" font-family="Arial" font-size="14.00" fill="#000000">: X86LocalApic</text>
</a>
</g>
</g>
<g id="clust142" class="cluster"><title>cluster_system_cpu1_itb_walker_cache</title>
<g id="a_clust142"><a xlink:title="addr_ranges&#61;0:18446744073709551615&#10;assoc&#61;2&#10;clk_domain&#61;system.cpu_clk_domain&#10;demand_mshr_reserve&#61;1&#10;eventq_index&#61;0&#10;forward_snoops&#61;true&#10;hit_latency&#61;2&#10;is_top_level&#61;true&#10;max_miss_count&#61;0&#10;mshrs&#61;10&#10;prefetch_on_access&#61;false&#10;prefetcher&#61;Null&#10;response_latency&#61;2&#10;sequential_access&#61;false&#10;size&#61;1024&#10;system&#61;system&#10;tags&#61;system.cpu1.itb_walker_cache.tags&#10;tgts_per_mshr&#61;12&#10;two_queue&#61;false&#10;write_buffers&#61;8">
<path fill="#bab6ae" stroke="#000000" d="M1418,-286C1418,-286 1580,-286 1580,-286 1586,-286 1592,-292 1592,-298 1592,-298 1592,-367.197 1592,-367.197 1592,-373.197 1586,-379.197 1580,-379.197 1580,-379.197 1418,-379.197 1418,-379.197 1412,-379.197 1406,-373.197 1406,-367.197 1406,-367.197 1406,-298 1406,-298 1406,-292 1412,-286 1418,-286"/>
<text text-anchor="middle" x="1499" y="-363.997" font-family="Arial" font-size="14.00" fill="#000000">itb_walker_cache </text>
<text text-anchor="middle" x="1499" y="-347.899" font-family="Arial" font-size="14.00" fill="#000000">: PageTableWalkerCache</text>
</a>
</g>
</g>
<g id="clust144" class="cluster"><title>cluster_system_cpu1_itb</title>
<g id="a_clust144"><a xlink:title="eventq_index&#61;0&#10;size&#61;64&#10;walker&#61;system.cpu1.itb.walker">
<path fill="#bab6ae" stroke="#000000" d="M1238,-409C1238,-409 1384,-409 1384,-409 1390,-409 1396,-415 1396,-421 1396,-421 1396,-546.395 1396,-546.395 1396,-552.395 1390,-558.395 1384,-558.395 1384,-558.395 1238,-558.395 1238,-558.395 1232,-558.395 1226,-552.395 1226,-546.395 1226,-546.395 1226,-421 1226,-421 1226,-415 1232,-409 1238,-409"/>
<text text-anchor="middle" x="1311" y="-543.195" font-family="Arial" font-size="14.00" fill="#000000">itb </text>
<text text-anchor="middle" x="1311" y="-527.096" font-family="Arial" font-size="14.00" fill="#000000">: X86TLB</text>
</a>
</g>
</g>
<g id="clust145" class="cluster"><title>cluster_system_cpu1_itb_walker</title>
<g id="a_clust145"><a xlink:title="clk_domain&#61;system.cpu_clk_domain&#10;eventq_index&#61;0&#10;num_squash_per_cycle&#61;4&#10;system&#61;system">
<path fill="#9f9c95" stroke="#000000" d="M1246,-417C1246,-417 1376,-417 1376,-417 1382,-417 1388,-423 1388,-429 1388,-429 1388,-498.197 1388,-498.197 1388,-504.197 1382,-510.197 1376,-510.197 1376,-510.197 1246,-510.197 1246,-510.197 1240,-510.197 1234,-504.197 1234,-498.197 1234,-498.197 1234,-429 1234,-429 1234,-423 1240,-417 1246,-417"/>
<text text-anchor="middle" x="1311" y="-494.997" font-family="Arial" font-size="14.00" fill="#000000">walker </text>
<text text-anchor="middle" x="1311" y="-478.899" font-family="Arial" font-size="14.00" fill="#000000">: X86PagetableWalker</text>
</a>
</g>
</g>
<g id="clust146" class="cluster"><title>cluster_system_cpu1_dtb_walker_cache</title>
<g id="a_clust146"><a xlink:title="addr_ranges&#61;0:18446744073709551615&#10;assoc&#61;2&#10;clk_domain&#61;system.cpu_clk_domain&#10;demand_mshr_reserve&#61;1&#10;eventq_index&#61;0&#10;forward_snoops&#61;true&#10;hit_latency&#61;2&#10;is_top_level&#61;true&#10;max_miss_count&#61;0&#10;mshrs&#61;10&#10;prefetch_on_access&#61;false&#10;prefetcher&#61;Null&#10;response_latency&#61;2&#10;sequential_access&#61;false&#10;size&#61;1024&#10;system&#61;system&#10;tags&#61;system.cpu1.dtb_walker_cache.tags&#10;tgts_per_mshr&#61;12&#10;two_queue&#61;false&#10;write_buffers&#61;8">
<path fill="#bab6ae" stroke="#000000" d="M1639,-286C1639,-286 1801,-286 1801,-286 1807,-286 1813,-292 1813,-298 1813,-298 1813,-367.197 1813,-367.197 1813,-373.197 1807,-379.197 1801,-379.197 1801,-379.197 1639,-379.197 1639,-379.197 1633,-379.197 1627,-373.197 1627,-367.197 1627,-367.197 1627,-298 1627,-298 1627,-292 1633,-286 1639,-286"/>
<text text-anchor="middle" x="1720" y="-363.997" font-family="Arial" font-size="14.00" fill="#000000">dtb_walker_cache </text>
<text text-anchor="middle" x="1720" y="-347.899" font-family="Arial" font-size="14.00" fill="#000000">: PageTableWalkerCache</text>
</a>
</g>
</g>
<g id="clust149" class="cluster"><title>cluster_system_cpu1_dcache</title>
<g id="a_clust149"><a xlink:title="addr_ranges&#61;0:18446744073709551615&#10;assoc&#61;2&#10;clk_domain&#61;system.cpu_clk_domain&#10;demand_mshr_reserve&#61;1&#10;eventq_index&#61;0&#10;forward_snoops&#61;true&#10;hit_latency&#61;2&#10;is_top_level&#61;true&#10;max_miss_count&#61;0&#10;mshrs&#61;4&#10;prefetch_on_access&#61;false&#10;prefetcher&#61;Null&#10;response_latency&#61;2&#10;sequential_access&#61;false&#10;size&#61;65536&#10;system&#61;system&#10;tags&#61;system.cpu1.dcache.tags&#10;tgts_per_mshr&#61;20&#10;two_queue&#61;false&#10;write_buffers&#61;8">
<path fill="#bab6ae" stroke="#000000" d="M1030,-286C1030,-286 1192,-286 1192,-286 1198,-286 1204,-292 1204,-298 1204,-298 1204,-367.197 1204,-367.197 1204,-373.197 1198,-379.197 1192,-379.197 1192,-379.197 1030,-379.197 1030,-379.197 1024,-379.197 1018,-373.197 1018,-367.197 1018,-367.197 1018,-298 1018,-298 1018,-292 1024,-286 1030,-286"/>
<text text-anchor="middle" x="1111" y="-363.997" font-family="Arial" font-size="14.00" fill="#000000">dcache </text>
<text text-anchor="middle" x="1111" y="-347.899" font-family="Arial" font-size="14.00" fill="#000000">: L1Cache</text>
</a>
</g>
</g>
<!-- system_system_port -->
<g id="node1" class="node"><title>system_system_port</title>
<path fill="#b6b8bc" stroke="#000000" d="M1105.88,-754.092C1105.88,-754.092 1174.12,-754.092 1174.12,-754.092 1180.12,-754.092 1186.12,-760.092 1186.12,-766.092 1186.12,-766.092 1186.12,-778.092 1186.12,-778.092 1186.12,-784.092 1180.12,-790.092 1174.12,-790.092 1174.12,-790.092 1105.88,-790.092 1105.88,-790.092 1099.88,-790.092 1093.88,-784.092 1093.88,-778.092 1093.88,-778.092 1093.88,-766.092 1093.88,-766.092 1093.88,-760.092 1099.88,-754.092 1105.88,-754.092"/>
<text text-anchor="middle" x="1140" y="-768.941" font-family="Arial" font-size="14.00" fill="#000000">system_port</text>
</g>
<!-- system_membus_slave -->
<g id="node3" class="node"><title>system_membus_slave</title>
<path fill="#586070" stroke="#000000" d="M1125,-623.092C1125,-623.092 1155,-623.092 1155,-623.092 1161,-623.092 1167,-629.092 1167,-635.092 1167,-635.092 1167,-647.092 1167,-647.092 1167,-653.092 1161,-659.092 1155,-659.092 1155,-659.092 1125,-659.092 1125,-659.092 1119,-659.092 1113,-653.092 1113,-647.092 1113,-647.092 1113,-635.092 1113,-635.092 1113,-629.092 1119,-623.092 1125,-623.092"/>
<text text-anchor="middle" x="1139.84" y="-637.941" font-family="Arial" font-size="14.00" fill="#000000">slave</text>
</g>
<!-- system_system_port&#45;&gt;system_membus_slave -->
<g id="edge1" class="edge"><title>system_system_port&#45;&gt;system_membus_slave</title>
<path fill="none" stroke="black" d="M1140,-753.962C1140,-732.373 1140,-695.004 1140,-669.444"/>
<polygon fill="black" stroke="black" points="1143.5,-669.293 1140,-659.293 1136.5,-669.293 1143.5,-669.293"/>
</g>
<!-- system_membus_master -->
<g id="node2" class="node"><title>system_membus_master</title>
<path fill="#586070" stroke="#000000" d="M1048.61,-623.092C1048.61,-623.092 1083.39,-623.092 1083.39,-623.092 1089.39,-623.092 1095.39,-629.092 1095.39,-635.092 1095.39,-635.092 1095.39,-647.092 1095.39,-647.092 1095.39,-653.092 1089.39,-659.092 1083.39,-659.092 1083.39,-659.092 1048.61,-659.092 1048.61,-659.092 1042.61,-659.092 1036.61,-653.092 1036.61,-647.092 1036.61,-647.092 1036.61,-635.092 1036.61,-635.092 1036.61,-629.092 1042.61,-623.092 1048.61,-623.092"/>
<text text-anchor="middle" x="1066" y="-637.941" font-family="Arial" font-size="14.00" fill="#000000">master</text>
</g>
<!-- system_mem_ctrls_port -->
<g id="node8" class="node"><title>system_mem_ctrls_port</title>
<path fill="#4b4746" stroke="#000000" d="M105,-425.5C105,-425.5 135,-425.5 135,-425.5 141,-425.5 147,-431.5 147,-437.5 147,-437.5 147,-449.5 147,-449.5 147,-455.5 141,-461.5 135,-461.5 135,-461.5 105,-461.5 105,-461.5 99,-461.5 93,-455.5 93,-449.5 93,-449.5 93,-437.5 93,-437.5 93,-431.5 99,-425.5 105,-425.5"/>
<text text-anchor="middle" x="119.562" y="-440.349" font-family="Arial" font-size="14.00" fill="#000000">port</text>
</g>
<!-- system_membus_master&#45;&gt;system_mem_ctrls_port -->
<g id="edge6" class="edge"><title>system_membus_master&#45;&gt;system_mem_ctrls_port</title>
<path fill="none" stroke="black" d="M1036.57,-639.996C884.529,-639.376 193.717,-635.001 159,-606.592 119.244,-574.06 115.867,-508.727 117.536,-471.711"/>
<polygon fill="black" stroke="black" points="121.035,-471.829 118.148,-461.635 114.048,-471.405 121.035,-471.829"/>
</g>
<!-- system_cpu0_interrupts_int_slave -->
<g id="node14" class="node"><title>system_cpu0_interrupts_int_slave</title>
<path fill="#9f8575" stroke="#000000" d="M649.373,-425.5C649.373,-425.5 696.627,-425.5 696.627,-425.5 702.627,-425.5 708.627,-431.5 708.627,-437.5 708.627,-437.5 708.627,-449.5 708.627,-449.5 708.627,-455.5 702.627,-461.5 696.627,-461.5 696.627,-461.5 649.373,-461.5 649.373,-461.5 643.373,-461.5 637.373,-455.5 637.373,-449.5 637.373,-449.5 637.373,-437.5 637.373,-437.5 637.373,-431.5 643.373,-425.5 649.373,-425.5"/>
<text text-anchor="middle" x="673" y="-440.349" font-family="Arial" font-size="14.00" fill="#000000">int_slave</text>
</g>
<!-- system_membus_master&#45;&gt;system_cpu0_interrupts_int_slave -->
<g id="edge3" class="edge"><title>system_membus_master&#45;&gt;system_cpu0_interrupts_int_slave</title>
<path fill="none" stroke="black" d="M1036.34,-639.153C956.467,-636.36 741.194,-627 717,-606.592 677.543,-573.31 671.616,-508.548 671.713,-471.758"/>
<polygon fill="black" stroke="black" points="675.213,-471.799 671.892,-461.738 668.214,-471.674 675.213,-471.799"/>
</g>
<!-- system_cpu0_interrupts_pio -->
<g id="node16" class="node"><title>system_cpu0_interrupts_pio</title>
<path fill="#9f8575" stroke="#000000" d="M577,-425.5C577,-425.5 607,-425.5 607,-425.5 613,-425.5 619,-431.5 619,-437.5 619,-437.5 619,-449.5 619,-449.5 619,-455.5 613,-461.5 607,-461.5 607,-461.5 577,-461.5 577,-461.5 571,-461.5 565,-455.5 565,-449.5 565,-449.5 565,-437.5 565,-437.5 565,-431.5 571,-425.5 577,-425.5"/>
<text text-anchor="middle" x="591.841" y="-440.349" font-family="Arial" font-size="14.00" fill="#000000">pio</text>
</g>
<!-- system_membus_master&#45;&gt;system_cpu0_interrupts_pio -->
<g id="edge2" class="edge"><title>system_membus_master&#45;&gt;system_cpu0_interrupts_pio</title>
<path fill="none" stroke="black" d="M1036.34,-639.833C942.854,-638.746 658.756,-633.257 628,-606.592 589.444,-573.163 586.997,-508.457 589.156,-471.716"/>
<polygon fill="black" stroke="black" points="592.649,-471.942 589.9,-461.71 585.668,-471.423 592.649,-471.942"/>
</g>
<!-- system_cpu1_interrupts_int_slave -->
<g id="node29" class="node"><title>system_cpu1_interrupts_int_slave</title>
<path fill="#9f8575" stroke="#000000" d="M1496.37,-425.5C1496.37,-425.5 1543.63,-425.5 1543.63,-425.5 1549.63,-425.5 1555.63,-431.5 1555.63,-437.5 1555.63,-437.5 1555.63,-449.5 1555.63,-449.5 1555.63,-455.5 1549.63,-461.5 1543.63,-461.5 1543.63,-461.5 1496.37,-461.5 1496.37,-461.5 1490.37,-461.5 1484.37,-455.5 1484.37,-449.5 1484.37,-449.5 1484.37,-437.5 1484.37,-437.5 1484.37,-431.5 1490.37,-425.5 1496.37,-425.5"/>
<text text-anchor="middle" x="1520" y="-440.349" font-family="Arial" font-size="14.00" fill="#000000">int_slave</text>
</g>
<!-- system_membus_master&#45;&gt;system_cpu1_interrupts_int_slave -->
<g id="edge5" class="edge"><title>system_membus_master&#45;&gt;system_cpu1_interrupts_int_slave</title>
<path fill="none" stroke="black" d="M1087,-622.961C1092.26,-619.558 1098.09,-616.46 1104,-614.592 1123.66,-608.375 1458.72,-619.244 1475,-606.592 1516.03,-574.698 1521.76,-508.833 1521.44,-471.628"/>
<polygon fill="black" stroke="black" points="1524.94,-471.422 1521.2,-461.509 1517.94,-471.59 1524.94,-471.422"/>
</g>
<!-- system_cpu1_interrupts_pio -->
<g id="node31" class="node"><title>system_cpu1_interrupts_pio</title>
<path fill="#9f8575" stroke="#000000" d="M1424,-425.5C1424,-425.5 1454,-425.5 1454,-425.5 1460,-425.5 1466,-431.5 1466,-437.5 1466,-437.5 1466,-449.5 1466,-449.5 1466,-455.5 1460,-461.5 1454,-461.5 1454,-461.5 1424,-461.5 1424,-461.5 1418,-461.5 1412,-455.5 1412,-449.5 1412,-449.5 1412,-437.5 1412,-437.5 1412,-431.5 1418,-425.5 1424,-425.5"/>
<text text-anchor="middle" x="1438.84" y="-440.349" font-family="Arial" font-size="14.00" fill="#000000">pio</text>
</g>
<!-- system_membus_master&#45;&gt;system_cpu1_interrupts_pio -->
<g id="edge4" class="edge"><title>system_membus_master&#45;&gt;system_cpu1_interrupts_pio</title>
<path fill="none" stroke="black" d="M1087.01,-622.988C1092.26,-619.583 1098.1,-616.479 1104,-614.592 1119.25,-609.718 1379.34,-616.382 1392,-606.592 1433.24,-574.702 1439.86,-508.835 1440.06,-471.629"/>
<polygon fill="black" stroke="black" points="1443.56,-471.474 1439.96,-461.509 1436.56,-471.544 1443.56,-471.474"/>
</g>
<!-- system_tol2bus_master -->
<g id="node4" class="node"><title>system_tol2bus_master</title>
<path fill="#586070" stroke="#000000" d="M1212.61,-163.5C1212.61,-163.5 1247.39,-163.5 1247.39,-163.5 1253.39,-163.5 1259.39,-169.5 1259.39,-175.5 1259.39,-175.5 1259.39,-187.5 1259.39,-187.5 1259.39,-193.5 1253.39,-199.5 1247.39,-199.5 1247.39,-199.5 1212.61,-199.5 1212.61,-199.5 1206.61,-199.5 1200.61,-193.5 1200.61,-187.5 1200.61,-187.5 1200.61,-175.5 1200.61,-175.5 1200.61,-169.5 1206.61,-163.5 1212.61,-163.5"/>
<text text-anchor="middle" x="1230" y="-178.349" font-family="Arial" font-size="14.00" fill="#000000">master</text>
</g>
<!-- system_l2_cpu_side -->
<g id="node7" class="node"><title>system_l2_cpu_side</title>
<path fill="#94918b" stroke="#000000" d="M1448.98,-32.5C1448.98,-32.5 1497.02,-32.5 1497.02,-32.5 1503.02,-32.5 1509.02,-38.5 1509.02,-44.5 1509.02,-44.5 1509.02,-56.5 1509.02,-56.5 1509.02,-62.5 1503.02,-68.5 1497.02,-68.5 1497.02,-68.5 1448.98,-68.5 1448.98,-68.5 1442.98,-68.5 1436.98,-62.5 1436.98,-56.5 1436.98,-56.5 1436.98,-44.5 1436.98,-44.5 1436.98,-38.5 1442.98,-32.5 1448.98,-32.5"/>
<text text-anchor="middle" x="1473" y="-47.3493" font-family="Arial" font-size="14.00" fill="#000000">cpu_side</text>
</g>
<!-- system_tol2bus_master&#45;&gt;system_l2_cpu_side -->
<g id="edge7" class="edge"><title>system_tol2bus_master&#45;&gt;system_l2_cpu_side</title>
<path fill="none" stroke="black" d="M1259.8,-164.682C1302.9,-141.802 1382.8,-99.3817 1431.61,-73.474"/>
<polygon fill="black" stroke="black" points="1433.45,-76.4606 1440.64,-68.6802 1430.16,-70.2777 1433.45,-76.4606"/>
</g>
<!-- system_tol2bus_slave -->
<g id="node5" class="node"><title>system_tol2bus_slave</title>
<path fill="#586070" stroke="#000000" d="M1141,-163.5C1141,-163.5 1171,-163.5 1171,-163.5 1177,-163.5 1183,-169.5 1183,-175.5 1183,-175.5 1183,-187.5 1183,-187.5 1183,-193.5 1177,-199.5 1171,-199.5 1171,-199.5 1141,-199.5 1141,-199.5 1135,-199.5 1129,-193.5 1129,-187.5 1129,-187.5 1129,-175.5 1129,-175.5 1129,-169.5 1135,-163.5 1141,-163.5"/>
<text text-anchor="middle" x="1155.84" y="-178.349" font-family="Arial" font-size="14.00" fill="#000000">slave</text>
</g>
<!-- system_l2_mem_side -->
<g id="node6" class="node"><title>system_l2_mem_side</title>
<path fill="#94918b" stroke="#000000" d="M1538.71,-32.5C1538.71,-32.5 1595.29,-32.5 1595.29,-32.5 1601.29,-32.5 1607.29,-38.5 1607.29,-44.5 1607.29,-44.5 1607.29,-56.5 1607.29,-56.5 1607.29,-62.5 1601.29,-68.5 1595.29,-68.5 1595.29,-68.5 1538.71,-68.5 1538.71,-68.5 1532.71,-68.5 1526.71,-62.5 1526.71,-56.5 1526.71,-56.5 1526.71,-44.5 1526.71,-44.5 1526.71,-38.5 1532.71,-32.5 1538.71,-32.5"/>
<text text-anchor="middle" x="1567" y="-47.3493" font-family="Arial" font-size="14.00" fill="#000000">mem_side</text>
</g>
<!-- system_l2_mem_side&#45;&gt;system_membus_slave -->
<g id="edge8" class="edge"><title>system_l2_mem_side&#45;&gt;system_membus_slave</title>
<path fill="none" stroke="black" d="M1596.5,-68.5749C1650.35,-101.473 1763.91,-179.205 1817,-278 1886.26,-406.882 1937.94,-500.68 1837,-606.592 1814.09,-630.63 1319.01,-638.067 1177.48,-639.706"/>
<polygon fill="black" stroke="black" points="1177.11,-636.209 1167.15,-639.822 1177.19,-643.209 1177.11,-636.209"/>
</g>
<!-- system_cpu0_icache_port -->
<g id="node9" class="node"><title>system_cpu0_icache_port</title>
<path fill="#959ead" stroke="#000000" d="M294.811,-425.5C294.811,-425.5 359.189,-425.5 359.189,-425.5 365.189,-425.5 371.189,-431.5 371.189,-437.5 371.189,-437.5 371.189,-449.5 371.189,-449.5 371.189,-455.5 365.189,-461.5 359.189,-461.5 359.189,-461.5 294.811,-461.5 294.811,-461.5 288.811,-461.5 282.811,-455.5 282.811,-449.5 282.811,-449.5 282.811,-437.5 282.811,-437.5 282.811,-431.5 288.811,-425.5 294.811,-425.5"/>
<text text-anchor="middle" x="327" y="-440.349" font-family="Arial" font-size="14.00" fill="#000000">icache_port</text>
</g>
<!-- system_cpu0_icache_cpu_side -->
<g id="node12" class="node"><title>system_cpu0_icache_cpu_side</title>
<path fill="#94918b" stroke="#000000" d="M400.979,-294.5C400.979,-294.5 449.021,-294.5 449.021,-294.5 455.021,-294.5 461.021,-300.5 461.021,-306.5 461.021,-306.5 461.021,-318.5 461.021,-318.5 461.021,-324.5 455.021,-330.5 449.021,-330.5 449.021,-330.5 400.979,-330.5 400.979,-330.5 394.979,-330.5 388.979,-324.5 388.979,-318.5 388.979,-318.5 388.979,-306.5 388.979,-306.5 388.979,-300.5 394.979,-294.5 400.979,-294.5"/>
<text text-anchor="middle" x="425" y="-309.349" font-family="Arial" font-size="14.00" fill="#000000">cpu_side</text>
</g>
<!-- system_cpu0_icache_port&#45;&gt;system_cpu0_icache_cpu_side -->
<g id="edge9" class="edge"><title>system_cpu0_icache_port&#45;&gt;system_cpu0_icache_cpu_side</title>
<path fill="none" stroke="black" d="M340.014,-425.37C356.854,-403.203 386.333,-364.399 405.762,-338.824"/>
<polygon fill="black" stroke="black" points="408.67,-340.781 411.933,-330.701 403.096,-336.547 408.67,-340.781"/>
</g>
<!-- system_cpu0_dcache_port -->
<g id="node10" class="node"><title>system_cpu0_dcache_port</title>
<path fill="#959ead" stroke="#000000" d="M183.473,-425.5C183.473,-425.5 252.527,-425.5 252.527,-425.5 258.527,-425.5 264.527,-431.5 264.527,-437.5 264.527,-437.5 264.527,-449.5 264.527,-449.5 264.527,-455.5 258.527,-461.5 252.527,-461.5 252.527,-461.5 183.473,-461.5 183.473,-461.5 177.473,-461.5 171.473,-455.5 171.473,-449.5 171.473,-449.5 171.473,-437.5 171.473,-437.5 171.473,-431.5 177.473,-425.5 183.473,-425.5"/>
<text text-anchor="middle" x="218" y="-440.349" font-family="Arial" font-size="14.00" fill="#000000">dcache_port</text>
</g>
<!-- system_cpu0_dcache_cpu_side -->
<g id="node23" class="node"><title>system_cpu0_dcache_cpu_side</title>
<path fill="#94918b" stroke="#000000" d="M199.979,-294.5C199.979,-294.5 248.021,-294.5 248.021,-294.5 254.021,-294.5 260.021,-300.5 260.021,-306.5 260.021,-306.5 260.021,-318.5 260.021,-318.5 260.021,-324.5 254.021,-330.5 248.021,-330.5 248.021,-330.5 199.979,-330.5 199.979,-330.5 193.979,-330.5 187.979,-324.5 187.979,-318.5 187.979,-318.5 187.979,-306.5 187.979,-306.5 187.979,-300.5 193.979,-294.5 199.979,-294.5"/>
<text text-anchor="middle" x="224" y="-309.349" font-family="Arial" font-size="14.00" fill="#000000">cpu_side</text>
</g>
<!-- system_cpu0_dcache_port&#45;&gt;system_cpu0_dcache_cpu_side -->
<g id="edge10" class="edge"><title>system_cpu0_dcache_port&#45;&gt;system_cpu0_dcache_cpu_side</title>
<path fill="none" stroke="black" d="M218.797,-425.37C219.801,-403.781 221.539,-366.412 222.728,-340.852"/>
<polygon fill="black" stroke="black" points="226.231,-340.853 223.2,-330.701 219.239,-340.528 226.231,-340.853"/>
</g>
<!-- system_cpu0_icache_mem_side -->
<g id="node11" class="node"><title>system_cpu0_icache_mem_side</title>
<path fill="#94918b" stroke="#000000" d="M490.71,-294.5C490.71,-294.5 547.29,-294.5 547.29,-294.5 553.29,-294.5 559.29,-300.5 559.29,-306.5 559.29,-306.5 559.29,-318.5 559.29,-318.5 559.29,-324.5 553.29,-330.5 547.29,-330.5 547.29,-330.5 490.71,-330.5 490.71,-330.5 484.71,-330.5 478.71,-324.5 478.71,-318.5 478.71,-318.5 478.71,-306.5 478.71,-306.5 478.71,-300.5 484.71,-294.5 490.71,-294.5"/>
<text text-anchor="middle" x="519" y="-309.349" font-family="Arial" font-size="14.00" fill="#000000">mem_side</text>
</g>
<!-- system_cpu0_icache_mem_side&#45;&gt;system_tol2bus_slave -->
<g id="edge11" class="edge"><title>system_cpu0_icache_mem_side&#45;&gt;system_tol2bus_slave</title>
<path fill="none" stroke="black" d="M554.069,-294.343C567.273,-288.445 582.584,-282.262 597,-278 788.629,-221.35 1027.77,-194.498 1118.64,-185.804"/>
<polygon fill="black" stroke="black" points="1119.09,-189.277 1128.72,-184.856 1118.44,-182.308 1119.09,-189.277"/>
</g>
<!-- system_cpu0_dtb_walker_port -->
<g id="node13" class="node"><title>system_cpu0_dtb_walker_port</title>
<path fill="#7f7c77" stroke="#000000" d="M852,-425.5C852,-425.5 882,-425.5 882,-425.5 888,-425.5 894,-431.5 894,-437.5 894,-437.5 894,-449.5 894,-449.5 894,-455.5 888,-461.5 882,-461.5 882,-461.5 852,-461.5 852,-461.5 846,-461.5 840,-455.5 840,-449.5 840,-449.5 840,-437.5 840,-437.5 840,-431.5 846,-425.5 852,-425.5"/>
<text text-anchor="middle" x="866.562" y="-440.349" font-family="Arial" font-size="14.00" fill="#000000">port</text>
</g>
<!-- system_cpu0_dtb_walker_cache_cpu_side -->
<g id="node21" class="node"><title>system_cpu0_dtb_walker_cache_cpu_side</title>
<path fill="#94918b" stroke="#000000" d="M827.979,-294.5C827.979,-294.5 876.021,-294.5 876.021,-294.5 882.021,-294.5 888.021,-300.5 888.021,-306.5 888.021,-306.5 888.021,-318.5 888.021,-318.5 888.021,-324.5 882.021,-330.5 876.021,-330.5 876.021,-330.5 827.979,-330.5 827.979,-330.5 821.979,-330.5 815.979,-324.5 815.979,-318.5 815.979,-318.5 815.979,-306.5 815.979,-306.5 815.979,-300.5 821.979,-294.5 827.979,-294.5"/>
<text text-anchor="middle" x="852" y="-309.349" font-family="Arial" font-size="14.00" fill="#000000">cpu_side</text>
</g>
<!-- system_cpu0_dtb_walker_port&#45;&gt;system_cpu0_dtb_walker_cache_cpu_side -->
<g id="edge12" class="edge"><title>system_cpu0_dtb_walker_port&#45;&gt;system_cpu0_dtb_walker_cache_cpu_side</title>
<path fill="none" stroke="black" d="M865.008,-425.37C862.498,-403.781 858.153,-366.412 855.18,-340.852"/>
<polygon fill="black" stroke="black" points="858.632,-340.23 854,-330.701 851.679,-341.038 858.632,-340.23"/>
</g>
<!-- system_cpu0_interrupts_int_master -->
<g id="node15" class="node"><title>system_cpu0_interrupts_int_master</title>
<path fill="#9f8575" stroke="#000000" d="M738.321,-425.5C738.321,-425.5 795.679,-425.5 795.679,-425.5 801.679,-425.5 807.679,-431.5 807.679,-437.5 807.679,-437.5 807.679,-449.5 807.679,-449.5 807.679,-455.5 801.679,-461.5 795.679,-461.5 795.679,-461.5 738.321,-461.5 738.321,-461.5 732.321,-461.5 726.321,-455.5 726.321,-449.5 726.321,-449.5 726.321,-437.5 726.321,-437.5 726.321,-431.5 732.321,-425.5 738.321,-425.5"/>
<text text-anchor="middle" x="767" y="-440.349" font-family="Arial" font-size="14.00" fill="#000000">int_master</text>
</g>
<!-- system_cpu0_interrupts_int_master&#45;&gt;system_membus_slave -->
<g id="edge13" class="edge"><title>system_cpu0_interrupts_int_master&#45;&gt;system_membus_slave</title>
<path fill="none" stroke="black" d="M767.594,-461.658C769.811,-495.919 780.156,-572.441 828,-606.592 852.971,-624.416 1074.9,-604.864 1104,-614.592 1106.57,-615.45 1109.11,-616.557 1111.59,-617.829"/>
<polygon fill="black" stroke="black" points="1109.83,-620.855 1120.21,-622.998 1113.43,-614.852 1109.83,-620.855"/>
</g>
<!-- system_cpu0_itb_walker_cache_mem_side -->
<g id="node17" class="node"><title>system_cpu0_itb_walker_cache_mem_side</title>
<path fill="#94918b" stroke="#000000" d="M710.71,-294.5C710.71,-294.5 767.29,-294.5 767.29,-294.5 773.29,-294.5 779.29,-300.5 779.29,-306.5 779.29,-306.5 779.29,-318.5 779.29,-318.5 779.29,-324.5 773.29,-330.5 767.29,-330.5 767.29,-330.5 710.71,-330.5 710.71,-330.5 704.71,-330.5 698.71,-324.5 698.71,-318.5 698.71,-318.5 698.71,-306.5 698.71,-306.5 698.71,-300.5 704.71,-294.5 710.71,-294.5"/>
<text text-anchor="middle" x="739" y="-309.349" font-family="Arial" font-size="14.00" fill="#000000">mem_side</text>
</g>
<!-- system_cpu0_itb_walker_cache_mem_side&#45;&gt;system_tol2bus_slave -->
<g id="edge14" class="edge"><title>system_cpu0_itb_walker_cache_mem_side&#45;&gt;system_tol2bus_slave</title>
<path fill="none" stroke="black" d="M768.81,-294.461C779.659,-288.713 792.166,-282.596 804,-278 915.267,-234.792 1053.53,-203.435 1118.7,-189.904"/>
<polygon fill="black" stroke="black" points="1119.8,-193.252 1128.89,-187.811 1118.39,-186.395 1119.8,-193.252"/>
</g>
<!-- system_cpu0_itb_walker_cache_cpu_side -->
<g id="node18" class="node"><title>system_cpu0_itb_walker_cache_cpu_side</title>
<path fill="#94918b" stroke="#000000" d="M620.979,-294.5C620.979,-294.5 669.021,-294.5 669.021,-294.5 675.021,-294.5 681.021,-300.5 681.021,-306.5 681.021,-306.5 681.021,-318.5 681.021,-318.5 681.021,-324.5 675.021,-330.5 669.021,-330.5 669.021,-330.5 620.979,-330.5 620.979,-330.5 614.979,-330.5 608.979,-324.5 608.979,-318.5 608.979,-318.5 608.979,-306.5 608.979,-306.5 608.979,-300.5 614.979,-294.5 620.979,-294.5"/>
<text text-anchor="middle" x="645" y="-309.349" font-family="Arial" font-size="14.00" fill="#000000">cpu_side</text>
</g>
<!-- system_cpu0_itb_walker_port -->
<g id="node19" class="node"><title>system_cpu0_itb_walker_port</title>
<path fill="#7f7c77" stroke="#000000" d="M491,-425.5C491,-425.5 521,-425.5 521,-425.5 527,-425.5 533,-431.5 533,-437.5 533,-437.5 533,-449.5 533,-449.5 533,-455.5 527,-461.5 521,-461.5 521,-461.5 491,-461.5 491,-461.5 485,-461.5 479,-455.5 479,-449.5 479,-449.5 479,-437.5 479,-437.5 479,-431.5 485,-425.5 491,-425.5"/>
<text text-anchor="middle" x="505.562" y="-440.349" font-family="Arial" font-size="14.00" fill="#000000">port</text>
</g>
<!-- system_cpu0_itb_walker_port&#45;&gt;system_cpu0_itb_walker_cache_cpu_side -->
<g id="edge15" class="edge"><title>system_cpu0_itb_walker_port&#45;&gt;system_cpu0_itb_walker_cache_cpu_side</title>
<path fill="none" stroke="black" d="M524.458,-425.37C548.655,-402.913 591.249,-363.384 618.784,-337.83"/>
<polygon fill="black" stroke="black" points="621.517,-340.069 626.466,-330.701 616.755,-334.938 621.517,-340.069"/>
</g>
<!-- system_cpu0_dtb_walker_cache_mem_side -->
<g id="node20" class="node"><title>system_cpu0_dtb_walker_cache_mem_side</title>
<path fill="#94918b" stroke="#000000" d="M917.71,-294.5C917.71,-294.5 974.29,-294.5 974.29,-294.5 980.29,-294.5 986.29,-300.5 986.29,-306.5 986.29,-306.5 986.29,-318.5 986.29,-318.5 986.29,-324.5 980.29,-330.5 974.29,-330.5 974.29,-330.5 917.71,-330.5 917.71,-330.5 911.71,-330.5 905.71,-324.5 905.71,-318.5 905.71,-318.5 905.71,-306.5 905.71,-306.5 905.71,-300.5 911.71,-294.5 917.71,-294.5"/>
<text text-anchor="middle" x="946" y="-309.349" font-family="Arial" font-size="14.00" fill="#000000">mem_side</text>
</g>
<!-- system_cpu0_dtb_walker_cache_mem_side&#45;&gt;system_tol2bus_slave -->
<g id="edge16" class="edge"><title>system_cpu0_dtb_walker_cache_mem_side&#45;&gt;system_tol2bus_slave</title>
<path fill="none" stroke="black" d="M973.886,-294.37C1011.62,-271.192 1078.96,-229.826 1120.33,-204.411"/>
<polygon fill="black" stroke="black" points="1122.31,-207.304 1129,-199.088 1118.64,-201.34 1122.31,-207.304"/>
</g>
<!-- system_cpu0_dcache_mem_side -->
<g id="node22" class="node"><title>system_cpu0_dcache_mem_side</title>
<path fill="#94918b" stroke="#000000" d="M289.71,-294.5C289.71,-294.5 346.29,-294.5 346.29,-294.5 352.29,-294.5 358.29,-300.5 358.29,-306.5 358.29,-306.5 358.29,-318.5 358.29,-318.5 358.29,-324.5 352.29,-330.5 346.29,-330.5 346.29,-330.5 289.71,-330.5 289.71,-330.5 283.71,-330.5 277.71,-324.5 277.71,-318.5 277.71,-318.5 277.71,-306.5 277.71,-306.5 277.71,-300.5 283.71,-294.5 289.71,-294.5"/>
<text text-anchor="middle" x="318" y="-309.349" font-family="Arial" font-size="14.00" fill="#000000">mem_side</text>
</g>
<!-- system_cpu0_dcache_mem_side&#45;&gt;system_tol2bus_slave -->
<g id="edge17" class="edge"><title>system_cpu0_dcache_mem_side&#45;&gt;system_tol2bus_slave</title>
<path fill="none" stroke="black" d="M343.109,-294.335C353.221,-288.214 365.257,-281.881 377,-278 650.846,-187.495 1004.42,-181.366 1118.65,-181.958"/>
<polygon fill="black" stroke="black" points="1118.92,-185.46 1128.95,-182.033 1118.97,-178.46 1118.92,-185.46"/>
</g>
<!-- system_cpu1_icache_port -->
<g id="node24" class="node"><title>system_cpu1_icache_port</title>
<path fill="#959ead" stroke="#000000" d="M1141.81,-425.5C1141.81,-425.5 1206.19,-425.5 1206.19,-425.5 1212.19,-425.5 1218.19,-431.5 1218.19,-437.5 1218.19,-437.5 1218.19,-449.5 1218.19,-449.5 1218.19,-455.5 1212.19,-461.5 1206.19,-461.5 1206.19,-461.5 1141.81,-461.5 1141.81,-461.5 1135.81,-461.5 1129.81,-455.5 1129.81,-449.5 1129.81,-449.5 1129.81,-437.5 1129.81,-437.5 1129.81,-431.5 1135.81,-425.5 1141.81,-425.5"/>
<text text-anchor="middle" x="1174" y="-440.349" font-family="Arial" font-size="14.00" fill="#000000">icache_port</text>
</g>
<!-- system_cpu1_icache_cpu_side -->
<g id="node27" class="node"><title>system_cpu1_icache_cpu_side</title>
<path fill="#94918b" stroke="#000000" d="M1231.98,-294.5C1231.98,-294.5 1280.02,-294.5 1280.02,-294.5 1286.02,-294.5 1292.02,-300.5 1292.02,-306.5 1292.02,-306.5 1292.02,-318.5 1292.02,-318.5 1292.02,-324.5 1286.02,-330.5 1280.02,-330.5 1280.02,-330.5 1231.98,-330.5 1231.98,-330.5 1225.98,-330.5 1219.98,-324.5 1219.98,-318.5 1219.98,-318.5 1219.98,-306.5 1219.98,-306.5 1219.98,-300.5 1225.98,-294.5 1231.98,-294.5"/>
<text text-anchor="middle" x="1256" y="-309.349" font-family="Arial" font-size="14.00" fill="#000000">cpu_side</text>
</g>
<!-- system_cpu1_icache_port&#45;&gt;system_cpu1_icache_cpu_side -->
<g id="edge18" class="edge"><title>system_cpu1_icache_port&#45;&gt;system_cpu1_icache_cpu_side</title>
<path fill="none" stroke="black" d="M1184.89,-425.37C1198.92,-403.299 1223.43,-364.736 1239.69,-339.158"/>
<polygon fill="black" stroke="black" points="1242.66,-341.018 1245.07,-330.701 1236.75,-337.263 1242.66,-341.018"/>
</g>
<!-- system_cpu1_dcache_port -->
<g id="node25" class="node"><title>system_cpu1_dcache_port</title>
<path fill="#959ead" stroke="#000000" d="M1030.47,-425.5C1030.47,-425.5 1099.53,-425.5 1099.53,-425.5 1105.53,-425.5 1111.53,-431.5 1111.53,-437.5 1111.53,-437.5 1111.53,-449.5 1111.53,-449.5 1111.53,-455.5 1105.53,-461.5 1099.53,-461.5 1099.53,-461.5 1030.47,-461.5 1030.47,-461.5 1024.47,-461.5 1018.47,-455.5 1018.47,-449.5 1018.47,-449.5 1018.47,-437.5 1018.47,-437.5 1018.47,-431.5 1024.47,-425.5 1030.47,-425.5"/>
<text text-anchor="middle" x="1065" y="-440.349" font-family="Arial" font-size="14.00" fill="#000000">dcache_port</text>
</g>
<!-- system_cpu1_dcache_cpu_side -->
<g id="node38" class="node"><title>system_cpu1_dcache_cpu_side</title>
<path fill="#94918b" stroke="#000000" d="M1037.98,-294.5C1037.98,-294.5 1086.02,-294.5 1086.02,-294.5 1092.02,-294.5 1098.02,-300.5 1098.02,-306.5 1098.02,-306.5 1098.02,-318.5 1098.02,-318.5 1098.02,-324.5 1092.02,-330.5 1086.02,-330.5 1086.02,-330.5 1037.98,-330.5 1037.98,-330.5 1031.98,-330.5 1025.98,-324.5 1025.98,-318.5 1025.98,-318.5 1025.98,-306.5 1025.98,-306.5 1025.98,-300.5 1031.98,-294.5 1037.98,-294.5"/>
<text text-anchor="middle" x="1062" y="-309.349" font-family="Arial" font-size="14.00" fill="#000000">cpu_side</text>
</g>
<!-- system_cpu1_dcache_port&#45;&gt;system_cpu1_dcache_cpu_side -->
<g id="edge19" class="edge"><title>system_cpu1_dcache_port&#45;&gt;system_cpu1_dcache_cpu_side</title>
<path fill="none" stroke="black" d="M1064.6,-425.37C1064.1,-403.781 1063.23,-366.412 1062.64,-340.852"/>
<polygon fill="black" stroke="black" points="1066.13,-340.617 1062.4,-330.701 1059.13,-340.78 1066.13,-340.617"/>
</g>
<!-- system_cpu1_icache_mem_side -->
<g id="node26" class="node"><title>system_cpu1_icache_mem_side</title>
<path fill="#94918b" stroke="#000000" d="M1321.71,-294.5C1321.71,-294.5 1378.29,-294.5 1378.29,-294.5 1384.29,-294.5 1390.29,-300.5 1390.29,-306.5 1390.29,-306.5 1390.29,-318.5 1390.29,-318.5 1390.29,-324.5 1384.29,-330.5 1378.29,-330.5 1378.29,-330.5 1321.71,-330.5 1321.71,-330.5 1315.71,-330.5 1309.71,-324.5 1309.71,-318.5 1309.71,-318.5 1309.71,-306.5 1309.71,-306.5 1309.71,-300.5 1315.71,-294.5 1321.71,-294.5"/>
<text text-anchor="middle" x="1350" y="-309.349" font-family="Arial" font-size="14.00" fill="#000000">mem_side</text>
</g>
<!-- system_cpu1_icache_mem_side&#45;&gt;system_tol2bus_slave -->
<g id="edge20" class="edge"><title>system_cpu1_icache_mem_side&#45;&gt;system_tol2bus_slave</title>
<path fill="none" stroke="black" d="M1328.01,-294.162C1319.88,-288.385 1310.35,-282.327 1301,-278 1255.42,-256.914 1231.42,-279.314 1192,-248.197 1179.35,-238.211 1170.51,-222.499 1164.76,-208.944"/>
<polygon fill="black" stroke="black" points="1168,-207.614 1161.1,-199.568 1161.47,-210.156 1168,-207.614"/>
</g>
<!-- system_cpu1_dtb_walker_port -->
<g id="node28" class="node"><title>system_cpu1_dtb_walker_port</title>
<path fill="#7f7c77" stroke="#000000" d="M1699,-425.5C1699,-425.5 1729,-425.5 1729,-425.5 1735,-425.5 1741,-431.5 1741,-437.5 1741,-437.5 1741,-449.5 1741,-449.5 1741,-455.5 1735,-461.5 1729,-461.5 1729,-461.5 1699,-461.5 1699,-461.5 1693,-461.5 1687,-455.5 1687,-449.5 1687,-449.5 1687,-437.5 1687,-437.5 1687,-431.5 1693,-425.5 1699,-425.5"/>
<text text-anchor="middle" x="1713.56" y="-440.349" font-family="Arial" font-size="14.00" fill="#000000">port</text>
</g>
<!-- system_cpu1_dtb_walker_cache_cpu_side -->
<g id="node36" class="node"><title>system_cpu1_dtb_walker_cache_cpu_side</title>
<path fill="#94918b" stroke="#000000" d="M1646.98,-294.5C1646.98,-294.5 1695.02,-294.5 1695.02,-294.5 1701.02,-294.5 1707.02,-300.5 1707.02,-306.5 1707.02,-306.5 1707.02,-318.5 1707.02,-318.5 1707.02,-324.5 1701.02,-330.5 1695.02,-330.5 1695.02,-330.5 1646.98,-330.5 1646.98,-330.5 1640.98,-330.5 1634.98,-324.5 1634.98,-318.5 1634.98,-318.5 1634.98,-306.5 1634.98,-306.5 1634.98,-300.5 1640.98,-294.5 1646.98,-294.5"/>
<text text-anchor="middle" x="1671" y="-309.349" font-family="Arial" font-size="14.00" fill="#000000">cpu_side</text>
</g>
<!-- system_cpu1_dtb_walker_port&#45;&gt;system_cpu1_dtb_walker_cache_cpu_side -->
<g id="edge21" class="edge"><title>system_cpu1_dtb_walker_port&#45;&gt;system_cpu1_dtb_walker_cache_cpu_side</title>
<path fill="none" stroke="black" d="M1708.29,-425.37C1701.06,-403.685 1688.53,-366.078 1680,-340.51"/>
<polygon fill="black" stroke="black" points="1683.22,-339.081 1676.73,-330.701 1676.58,-341.295 1683.22,-339.081"/>
</g>
<!-- system_cpu1_interrupts_int_master -->
<g id="node30" class="node"><title>system_cpu1_interrupts_int_master</title>
<path fill="#9f8575" stroke="#000000" d="M1585.32,-425.5C1585.32,-425.5 1642.68,-425.5 1642.68,-425.5 1648.68,-425.5 1654.68,-431.5 1654.68,-437.5 1654.68,-437.5 1654.68,-449.5 1654.68,-449.5 1654.68,-455.5 1648.68,-461.5 1642.68,-461.5 1642.68,-461.5 1585.32,-461.5 1585.32,-461.5 1579.32,-461.5 1573.32,-455.5 1573.32,-449.5 1573.32,-449.5 1573.32,-437.5 1573.32,-437.5 1573.32,-431.5 1579.32,-425.5 1585.32,-425.5"/>
<text text-anchor="middle" x="1614" y="-440.349" font-family="Arial" font-size="14.00" fill="#000000">int_master</text>
</g>
<!-- system_cpu1_interrupts_int_master&#45;&gt;system_membus_slave -->
<g id="edge22" class="edge"><title>system_cpu1_interrupts_int_master&#45;&gt;system_membus_slave</title>
<path fill="none" stroke="black" d="M1614.58,-461.599C1614.71,-495.409 1609.65,-570.636 1565,-606.592 1535.14,-630.638 1275.2,-637.705 1177.19,-639.525"/>
<polygon fill="black" stroke="black" points="1177.07,-636.027 1167.14,-639.704 1177.2,-643.026 1177.07,-636.027"/>
</g>
<!-- system_cpu1_itb_walker_cache_mem_side -->
<g id="node32" class="node"><title>system_cpu1_itb_walker_cache_mem_side</title>
<path fill="#94918b" stroke="#000000" d="M1515.71,-294.5C1515.71,-294.5 1572.29,-294.5 1572.29,-294.5 1578.29,-294.5 1584.29,-300.5 1584.29,-306.5 1584.29,-306.5 1584.29,-318.5 1584.29,-318.5 1584.29,-324.5 1578.29,-330.5 1572.29,-330.5 1572.29,-330.5 1515.71,-330.5 1515.71,-330.5 1509.71,-330.5 1503.71,-324.5 1503.71,-318.5 1503.71,-318.5 1503.71,-306.5 1503.71,-306.5 1503.71,-300.5 1509.71,-294.5 1515.71,-294.5"/>
<text text-anchor="middle" x="1544" y="-309.349" font-family="Arial" font-size="14.00" fill="#000000">mem_side</text>
</g>
<!-- system_cpu1_itb_walker_cache_mem_side&#45;&gt;system_tol2bus_slave -->
<g id="edge23" class="edge"><title>system_cpu1_itb_walker_cache_mem_side&#45;&gt;system_tol2bus_slave</title>
<path fill="none" stroke="black" d="M1523.82,-294.32C1515.43,-288.119 1505.27,-281.734 1495,-278 1431.42,-254.872 1248.45,-285.489 1192,-248.197 1178.38,-239.198 1169.46,-223.228 1163.91,-209.287"/>
<polygon fill="black" stroke="black" points="1167.11,-207.853 1160.44,-199.623 1160.52,-210.217 1167.11,-207.853"/>
</g>
<!-- system_cpu1_itb_walker_cache_cpu_side -->
<g id="node33" class="node"><title>system_cpu1_itb_walker_cache_cpu_side</title>
<path fill="#94918b" stroke="#000000" d="M1425.98,-294.5C1425.98,-294.5 1474.02,-294.5 1474.02,-294.5 1480.02,-294.5 1486.02,-300.5 1486.02,-306.5 1486.02,-306.5 1486.02,-318.5 1486.02,-318.5 1486.02,-324.5 1480.02,-330.5 1474.02,-330.5 1474.02,-330.5 1425.98,-330.5 1425.98,-330.5 1419.98,-330.5 1413.98,-324.5 1413.98,-318.5 1413.98,-318.5 1413.98,-306.5 1413.98,-306.5 1413.98,-300.5 1419.98,-294.5 1425.98,-294.5"/>
<text text-anchor="middle" x="1450" y="-309.349" font-family="Arial" font-size="14.00" fill="#000000">cpu_side</text>
</g>
<!-- system_cpu1_itb_walker_port -->
<g id="node34" class="node"><title>system_cpu1_itb_walker_port</title>
<path fill="#7f7c77" stroke="#000000" d="M1338,-425.5C1338,-425.5 1368,-425.5 1368,-425.5 1374,-425.5 1380,-431.5 1380,-437.5 1380,-437.5 1380,-449.5 1380,-449.5 1380,-455.5 1374,-461.5 1368,-461.5 1368,-461.5 1338,-461.5 1338,-461.5 1332,-461.5 1326,-455.5 1326,-449.5 1326,-449.5 1326,-437.5 1326,-437.5 1326,-431.5 1332,-425.5 1338,-425.5"/>
<text text-anchor="middle" x="1352.56" y="-440.349" font-family="Arial" font-size="14.00" fill="#000000">port</text>
</g>
<!-- system_cpu1_itb_walker_port&#45;&gt;system_cpu1_itb_walker_cache_cpu_side -->
<g id="edge24" class="edge"><title>system_cpu1_itb_walker_port&#45;&gt;system_cpu1_itb_walker_cache_cpu_side</title>
<path fill="none" stroke="black" d="M1366.44,-425.404C1376.36,-412.721 1390.14,-394.969 1402,-379.197 1411.91,-366.025 1422.75,-351.213 1431.63,-338.991"/>
<polygon fill="black" stroke="black" points="1434.67,-340.763 1437.7,-330.611 1429,-336.656 1434.67,-340.763"/>
</g>
<!-- system_cpu1_dtb_walker_cache_mem_side -->
<g id="node35" class="node"><title>system_cpu1_dtb_walker_cache_mem_side</title>
<path fill="#94918b" stroke="#000000" d="M1736.71,-294.5C1736.71,-294.5 1793.29,-294.5 1793.29,-294.5 1799.29,-294.5 1805.29,-300.5 1805.29,-306.5 1805.29,-306.5 1805.29,-318.5 1805.29,-318.5 1805.29,-324.5 1799.29,-330.5 1793.29,-330.5 1793.29,-330.5 1736.71,-330.5 1736.71,-330.5 1730.71,-330.5 1724.71,-324.5 1724.71,-318.5 1724.71,-318.5 1724.71,-306.5 1724.71,-306.5 1724.71,-300.5 1730.71,-294.5 1736.71,-294.5"/>
<text text-anchor="middle" x="1765" y="-309.349" font-family="Arial" font-size="14.00" fill="#000000">mem_side</text>
</g>
<!-- system_cpu1_dtb_walker_cache_mem_side&#45;&gt;system_tol2bus_slave -->
<g id="edge25" class="edge"><title>system_cpu1_dtb_walker_cache_mem_side&#45;&gt;system_tol2bus_slave</title>
<path fill="none" stroke="black" d="M1745.37,-294.454C1736.9,-288.111 1726.54,-281.588 1716,-278 1605.59,-240.399 1290.62,-310.463 1192,-248.197 1178.19,-239.481 1169.27,-223.516 1163.76,-209.507"/>
<polygon fill="black" stroke="black" points="1166.96,-208.05 1160.33,-199.784 1160.36,-210.379 1166.96,-208.05"/>
</g>
<!-- system_cpu1_dcache_mem_side -->
<g id="node37" class="node"><title>system_cpu1_dcache_mem_side</title>
<path fill="#94918b" stroke="#000000" d="M1127.71,-294.5C1127.71,-294.5 1184.29,-294.5 1184.29,-294.5 1190.29,-294.5 1196.29,-300.5 1196.29,-306.5 1196.29,-306.5 1196.29,-318.5 1196.29,-318.5 1196.29,-324.5 1190.29,-330.5 1184.29,-330.5 1184.29,-330.5 1127.71,-330.5 1127.71,-330.5 1121.71,-330.5 1115.71,-324.5 1115.71,-318.5 1115.71,-318.5 1115.71,-306.5 1115.71,-306.5 1115.71,-300.5 1121.71,-294.5 1127.71,-294.5"/>
<text text-anchor="middle" x="1156" y="-309.349" font-family="Arial" font-size="14.00" fill="#000000">mem_side</text>
</g>
<!-- system_cpu1_dcache_mem_side&#45;&gt;system_tol2bus_slave -->
<g id="edge26" class="edge"><title>system_cpu1_dcache_mem_side&#45;&gt;system_tol2bus_slave</title>
<path fill="none" stroke="black" d="M1156,-294.37C1156,-272.781 1156,-235.412 1156,-209.852"/>
<polygon fill="black" stroke="black" points="1159.5,-209.701 1156,-199.701 1152.5,-209.701 1159.5,-209.701"/>
</g>
</g>
</svg>
